<svg xmlns="http://www.w3.org/2000/svg" xmlns:xlink="http://www.w3.org/1999/xlink" width="344.925" height="191.822" viewBox="0 0 344.925 191.822"><defs><clipPath id="a"><rect width="344.925" height="191.822" fill="none"/></clipPath></defs><g clip-path="url(#a)"><path d="M0,170.621c1.447-2.092,2.176-3.137,3.647-5.222a2.617,2.617,0,0,0,2.323.726c1.363-.314,2.137-1.751,1.643-3.931-2-8.825-3-13.237-5-22.062,2.617-.593,3.927-.884,6.549-1.453l4.745,21.838c1.288,5.928-1.776,10.321-6.6,11.43A10.017,10.017,0,0,1,0,170.621" fill="#1a1818"/><path d="M32.8,133.936l1.115,6.055c-2.538.467-3.806.706-6.341,1.2,1.954,10.121,2.93,15.182,4.884,25.3-2.556.493-3.834.745-6.386,1.262-2.045-10.1-3.067-15.154-5.111-25.257-2.531.512-3.8.774-6.324,1.308-.509-2.41-.764-3.614-1.273-6.024,7.759-1.64,11.647-2.408,19.436-3.842" fill="#1a1818"/><path d="M37.336,133.486a44.662,44.662,0,0,1,6.833-1.738c8.263-1.391,13.2,1.635,14.013,7.047.442,2.931-3.08,7.072-3.08,7.072.064.29,5.479,3.174,5.925,6.152.817,5.457-2.406,10.05-10.817,11.458a67.514,67.514,0,0,1-7.379.9q-2.748-15.447-5.5-30.894m8.546,11.294c.428-.027,1.081-.136,1.5-.206,3.22-.538,4.617-2.28,4.271-4.442-.338-2.116-2.376-3.365-5.628-2.822a10.65,10.65,0,0,0-1.352.319c.483,2.86.725,4.29,1.208,7.151M48.116,158c.374-.017.969-.117,1.29-.17,3.9-.651,5.251-2.474,4.856-4.952-.344-2.162-2.4-3.457-5.971-2.862a13.859,13.859,0,0,0-1.467.339c.517,3.058.775,4.587,1.292,7.645" fill="#1a1818"/><path d="M81.673,126.583c9.738-1.141,15.753,3.682,16.766,14.169,1.018,10.532-3.678,16.454-12.045,17.423-2.5.29-3.758.44-6.261.752q-1.974-15.84-3.947-31.681c2.194-.273,3.292-.406,5.487-.663M91.758,141.52c-.6-5.624-3.251-9.439-8.269-8.859.9,7.775,1.349,11.663,2.248,19.437,4.8-.554,6.679-4.365,6.021-10.578" fill="#1a1818"/><path d="M111.872,155.682c-2.585.207-3.878.316-6.462.546l-2.832-31.8c2.7-.24,4.048-.354,6.747-.57l2.547,31.824" fill="#1a1818"/><path d="M128.73,131.006c-.918-1.138-2.187-2.483-3.851-2.383a2.523,2.523,0,0,0-2.456,2.664c.086,1.365,1.213,2.291,4.283,4.172,5.678,3.479,7.836,5.844,8.029,9.9a9.476,9.476,0,0,1-9.012,9.714A12.289,12.289,0,0,1,116,150.7c1.973-1.939,2.966-2.9,4.966-4.829,1.4,2.146,2.992,3.1,4.38,3.011a2.833,2.833,0,0,0,2.661-2.989c-.1-1.685-1.826-3.14-4.884-5.007-4.976-3.037-7.054-5.283-7.326-9.058-.342-4.731,3.54-9,8.861-9.314,2.971-.177,6.214.93,9.136,4.123-2.038,1.741-3.051,2.615-5.065,4.37" fill="#1a1818"/><path d="M157.1,121.553c.041,2.462.061,3.694.1,6.156-2.57.042-3.854.069-6.424.134.259,10.3.389,15.456.647,25.761-2.59.065-3.886.1-6.476.191-.351-10.3-.527-15.452-.878-25.754-2.569.088-3.853.137-6.421.246-.1-2.46-.157-3.69-.262-6.151,7.882-.336,11.825-.453,19.712-.583" fill="#1a1818"/><path d="M168.126,153.377c-2.5.005-3.75.013-6.249.04q-.168-15.758-.337-31.514a29.837,29.837,0,0,1,5.609-.677c8.879-.029,14.606,4.974,14.489,12.179a11.474,11.474,0,0,1-4.718,9.061c2.008,4.4,3,6.6,4.945,11.014-2.867-.049-4.3-.066-7.168-.086-1.391-3.422-2.1-5.131-3.52-8.545a11.5,11.5,0,0,1-3.068.41c.007,3.247.01,4.871.017,8.118m.233-25.86h-.286c.01,4.779.015,7.169.024,11.949,4.543-.466,7.043-2.307,7.072-6.229.022-2.873-2.574-5.728-6.81-5.721" fill="#1a1818"/><path d="M193.513,153.771c-2.591-.086-3.886-.123-6.477-.185q.384-15.958.769-31.917c2.706.066,4.058.1,6.763.194q-.526,15.954-1.055,31.908" fill="#1a1818"/><path d="M201.6,122.493a44.421,44.421,0,0,1,7.023-.218c8.342.432,12.495,4.453,12.12,9.913-.2,2.958-4.528,6.238-4.528,6.238,0,.3,4.649,4.286,4.439,7.289-.384,5.505-4.52,9.291-13.01,8.844a66.731,66.731,0,0,1-7.374-.716q.664-15.675,1.33-31.35m5.874,12.876c.422.067,1.081.1,1.505.124,3.25.172,4.987-1.226,5.118-3.412.128-2.14-1.586-3.8-4.869-3.974a10.99,10.99,0,0,0-1.384.019l-.37,7.243m-.684,13.391a12.764,12.764,0,0,0,1.293.113c3.931.208,5.646-1.279,5.8-3.783.132-2.185-1.594-3.895-5.194-4.086a13.557,13.557,0,0,0-1.5.013l-.4,7.743" fill="#1a1818"/><path d="M225.909,145.872c.684-8.876,1.025-13.315,1.709-22.191,2.719.209,4.079.32,6.8.554-.771,8.961-1.157,13.441-1.929,22.4a3.317,3.317,0,1,0,6.59.6c.853-8.954,1.279-13.431,2.131-22.384,2.716.258,4.073.394,6.787.677-.923,8.855-1.385,13.282-2.309,22.137a9.93,9.93,0,0,1-19.775-1.793" fill="#1a1818"/><path d="M271.926,128.411c-.333,2.44-.5,3.66-.834,6.1-2.552-.349-3.828-.518-6.382-.844-1.308,10.224-1.962,15.336-3.271,25.56-2.575-.329-3.864-.488-6.442-.795,1.217-10.235,1.825-15.353,3.041-25.589-2.556-.3-3.835-.45-6.393-.732.27-2.447.4-3.671.674-6.119,7.852.865,11.774,1.348,19.607,2.419" fill="#1a1818"/><path d="M294.779,148.13c-1.56,9.08-7.17,15.042-13.589,14.04s-9.938-8.39-8.656-17.513c1.269-9.033,7.257-15.341,13.63-14.346s10.158,8.829,8.615,17.819m-6.615-1.013c.892-5.492-.4-10.048-2.992-10.452s-5.211,3.54-6.035,9.043c-.811,5.413.392,9.925,3.01,10.334s5.139-3.523,6.017-8.925" fill="#1a1818"/><path d="M303.637,165.9c-2.467-.465-3.7-.692-6.171-1.135q2.784-15.51,5.569-31.02a30.073,30.073,0,0,1,5.658.389c8.764,1.641,13.484,7.635,12.02,14.691a11.457,11.457,0,0,1-6.355,8.011c1.159,4.7,1.723,7.05,2.82,11.751-2.822-.588-4.234-.875-7.06-1.434-.733-3.623-1.107-5.434-1.874-9.057a11.575,11.575,0,0,1-3.1-.173c-.6,3.191-.9,4.786-1.5,7.977m5.072-25.359-.282-.053c-.885,4.7-1.328,7.045-2.213,11.742,4.568.4,7.381-.941,8.144-4.788.559-2.818-1.469-6.111-5.649-6.9" fill="#1a1818"/><path d="M338.807,149.3c-.568-1.35-1.418-3-3.053-3.369a2.532,2.532,0,0,0-3.118,1.868c-.3,1.335.53,2.54,2.97,5.208,4.512,4.935,5.937,7.812,4.99,11.759a9.511,9.511,0,0,1-11.426,6.8,12.372,12.372,0,0,1-8.162-6.926c2.446-1.308,3.675-1.957,6.144-3.244.753,2.454,2.023,3.812,3.387,4.12a2.841,2.841,0,0,0,3.406-2.123c.379-1.644-.886-3.527-3.316-6.178-3.955-4.312-5.331-7.05-4.539-10.751.994-4.638,5.932-7.646,11.16-6.457,2.919.664,5.743,2.637,7.675,6.524-2.458,1.1-3.681,1.654-6.118,2.773" fill="#1a1818"/><path d="M131.114,181.4h-.659l-.206-.783c-.37-1.359-.823-1.853-3.747-1.853h-2.265v4.613c3.212,0,3.459-.289,3.459-2.43h.782v6.136H127.7c0-2.141-.247-2.43-3.459-2.43v1.895c0,2.924.37,3.418,2.512,3.418h.576c2.924,0,3.377-.494,3.748-1.853l.206-.741h.618l-.247,3.871H118.718v-.783c2.306,0,2.677-.535,2.677-3.459v-5.271c0-2.925-.371-3.419-2.677-3.419v-.782h12.108Z" fill="#1a1818"/><path d="M140.463,191.781a6.232,6.232,0,0,1-3.748-1.4,2.965,2.965,0,0,0-.659,1.4h-.782V186.1h.865a4.507,4.507,0,0,0,4.612,4.324,2.12,2.12,0,0,0,2.389-1.976c0-1.071-.948-1.9-2.636-2.678l-2.306-1.112a4.415,4.415,0,0,1-2.883-3.953c0-1.977,1.853-3.666,4.365-3.666a5.385,5.385,0,0,1,3.254,1.071,2.33,2.33,0,0,0,.494-1.112h.783v4.86h-.865c-.289-1.936-1.36-3.542-3.5-3.542-1.194,0-2.265.659-2.265,1.689,0,1.07.865,1.647,2.841,2.553l2.307,1.112a4.242,4.242,0,0,1,2.718,3.707c0,2.594-2.265,4.406-4.983,4.406" fill="#1a1818"/><path d="M151.417,178.767c-2.965,0-3.418.494-3.748,1.853l-.206.783h-.7l.33-3.871h15.156l.288,3.871h-.659l-.206-.783c-.371-1.359-.783-1.853-3.748-1.853h-1.853V187c0,2.924.37,3.459,2.677,3.459v.783h-8.2v-.783c2.265,0,2.677-.535,2.677-3.459v-8.237Z" fill="#1a1818"/><path d="M163.115,189.557a2.057,2.057,0,0,1,2.018-2.059,2.03,2.03,0,0,1,2.018,2.059,1.971,1.971,0,0,1-2.018,2.018,2,2,0,0,1-2.018-2.018" fill="#1a1818"/><path d="M180.412,178.931v-.906l5.807-1.112V187c0,2.924.37,3.459,2.676,3.459v.783h-8.2v-.783c2.306,0,2.677-.535,2.677-3.459v-4.9c0-2.924-.7-3.212-2.965-3.171" fill="#1a1818"/><path d="M197.873,177.037c2.06,0,5.808,1.318,5.808,6.713,0,3.913-2.184,8.072-6.137,8.072-2.43,0-4.118-1.111-4.118-2.018,0-.617.247-.947.947-.947.741,0,1.235,1.606,3.13,1.606,2.224,0,3.253-3.047,3.5-5.642a4.526,4.526,0,0,1-3.171,1.194c-2.965,0-5.189-2.059-5.189-4.529,0-2.431,2.348-4.449,5.23-4.449m.289,7.7a3.178,3.178,0,0,0,2.883-1.606c-.042-3.089-1.607-4.819-3.172-4.819-1.812,0-2.594,1.812-2.594,3.172,0,1.4,1.029,3.253,2.883,3.253" fill="#1a1818"/><path d="M212.288,177.037c2.06,0,5.808,1.318,5.808,6.713,0,3.913-2.184,8.072-6.137,8.072-2.43,0-4.118-1.111-4.118-2.018,0-.617.247-.947.947-.947.741,0,1.235,1.606,3.13,1.606,2.224,0,3.253-3.047,3.5-5.642a4.526,4.526,0,0,1-3.171,1.194c-2.965,0-5.189-2.059-5.189-4.529,0-2.431,2.348-4.449,5.23-4.449m.289,7.7a3.178,3.178,0,0,0,2.883-1.606c-.042-3.089-1.607-4.819-3.172-4.819-1.812,0-2.594,1.812-2.594,3.172,0,1.4,1.029,3.253,2.883,3.253" fill="#1a1818"/><path d="M225.345,179.755c-1.235,0-2.43.33-2.677,1.606l-.206.742h-.824l.783-4.572h9.8V178.6l-3.665,4.077c2.307.618,3.995,2.471,3.995,4.448,0,2.471-2.471,4.653-5.766,4.653s-4.983-1.894-4.983-2.923a.812.812,0,0,1,.906-.865c1.153,0,.948,2.471,4.077,2.471,2.183,0,3.048-1.647,3.048-3.336a3.059,3.059,0,0,0-2.512-3.13c-.165.165-.33.453-.742.947a1.5,1.5,0,0,1-1.029.742c-.742,0-1.194-.824-.412-1.565l4.53-4.366Z" fill="#1a1818"/></g><g clip-path="url(#a)"><path d="M181.279,14.145a9.514,9.514,0,0,0-6.888,3.07,26.489,26.489,0,0,0-3.936,5.765,8.331,8.331,0,0,1-1.611,2.277c-.032,1.787.854,3.58,2.66,5.34,4.718,4.594,14.547,7.792,20.331,8.193a28.752,28.752,0,0,0-4.005-11.3c-2.094-3.617-4.669-6.513-5.992-7.336a4.014,4.014,0,0,1-1.979-3.284,3.489,3.489,0,0,1,1.42-2.728m-21.6,25.967a13.888,13.888,0,0,0-2.115,2.511,14.294,14.294,0,0,0-2.619,7.541,7.724,7.724,0,0,0,.166,1.627l.182.864-.093.034c1.225,2.941,5.109,7.242,11.313,11.07,5.737,3.54,20.626,10.944,37.282,5.132l0-.02a20.209,20.209,0,0,0,.129-2.373c.041-3.033-.713-7.964-3.794-10.007a25.6,25.6,0,0,1-6.674.854c-11.818,0-25.62-7.025-33.32-17.612-.141.1-.3.231-.46.379m1.722-3.921a2.8,2.8,0,0,0,.342,1.56l1.3,1.884-.125-.012c8.732,10.9,24.838,17.56,36.191,14.775,0-.1.006-.2.006-.31a21.967,21.967,0,0,0-1.532-7.752,11.453,11.453,0,0,0-3.838-5.231c-.214.01-.429.018-.659.018-6.1,0-17.66-3.511-23.178-8.886a10.328,10.328,0,0,1-3.265-5.658c-3.223,2.327-5.3,6.911-5.243,9.612m18.681,45.216q-1.027.02-2.011.019c-21.154,0-27.537-6.451-29.437-9.894a2.787,2.787,0,0,0-.084.667c0,1.2.623,2.933,2.671,4.9l.431.408-.03.124c6.227,5.428,36.975,9.49,50.364-.7l-.027-.132.539-.3c.256-.209.52-.413.761-.634l.081.089a5.1,5.1,0,0,0,1.69-2.948c-4.046,5.024-10.34,8.122-24.948,8.4M151.234,57.08a19.374,19.374,0,0,0-1.826,7.831,10.235,10.235,0,0,0,.735,4.032l.43,1-.11.039c1.22,2.5,6.7,9.53,29.572,9.115,13.785-.259,19.6-3.077,23.261-7.637a40.779,40.779,0,0,1-12.247,1.882c-11.737,0-21.325-4.908-25.741-7.632-5.888-3.633-10.373-8.081-12.079-11.8a12.336,12.336,0,0,0-2,3.168M175.288,0a46.464,46.464,0,0,0-26.444,84.673,19.3,19.3,0,0,1,.15-6.518c-2.058-2.125-2.9-4.206-2.9-5.956a4.176,4.176,0,0,1,1.443-3.31,12.759,12.759,0,0,1-.585-3.978,21.308,21.308,0,0,1,2.011-8.656,11.737,11.737,0,0,1,3.552-4.778c0-.026-.011-.054-.013-.08l.06-.005a10.785,10.785,0,0,1-.073-1.228c.039-4.775,3.02-9.362,5.433-11.575a9.626,9.626,0,0,1,1.192-.9,6.075,6.075,0,0,1-.17-1.5,15.068,15.068,0,0,1,8.189-12.468.509.509,0,0,1,.044-.041,2.615,2.615,0,0,0,.267-.333,14.358,14.358,0,0,0,.815-1.342,42.686,42.686,0,0,1,2.472-4.049c2.067-2.914,5.408-5.995,10.756-5.993a15.516,15.516,0,0,1,1.612.092,1.913,1.913,0,0,1,1,.372,1.3,1.3,0,0,1,.517,1.017,2.585,2.585,0,0,1-.942,1.665,8.463,8.463,0,0,1-.719.626,1.412,1.412,0,0,0-.63,1.136,1.925,1.925,0,0,0,.967,1.528c1.953,1.282,4.465,4.256,6.731,8.1a30.443,30.443,0,0,1,4.294,12.267l.023,0,.01.071a12.8,12.8,0,0,1,5.552,6.777,23.837,23.837,0,0,1,1.678,8.479c0,.22,0,.437-.014.645,4.332,2.946,4.778,8.538,4.822,11.765,0,.737-.033,1.363-.067,1.816a1.575,1.575,0,0,1,.162.136,2.792,2.792,0,0,1,.675.956,5.816,5.816,0,0,1,.46,2.4,7.308,7.308,0,0,1-2.955,6.008,18.73,18.73,0,0,1,.3,3.242c0,.421-.023.824-.054,1.221A46.468,46.468,0,0,0,175.288,0m2.092,84.419c-11.165,0-21.9-2.531-26.028-5.541a18.009,18.009,0,0,0-.255,3.073,15.64,15.64,0,0,0,.634,4.569,46.433,46.433,0,0,0,50.319-2.074,12.789,12.789,0,0,0,.442-3.386,17.237,17.237,0,0,0-.279-2.876c-6.269,4.526-15.682,6.235-24.833,6.235" fill="#1a1818"/><path d="M67.051,74.967c-.024-.4-.7-1.169-3.1-1.169a1.16,1.16,0,0,0-1.165.654c.051.5,1.63,10.388,3.5,22.051.956.293,1.931.543,2.918.758-.048-.488-.1-.975-.144-1.456-1.248-12.557-2.013-20.282-2.013-20.838M90.444,73.8a3.8,3.8,0,0,0-3.491,1.943c.006.487-.56,8.371-1.5,21.388a36.47,36.47,0,0,0,4.12-1.22c1.952-9.578,3.753-18.55,3.778-19.362,0-1.279-2.063-2.749-2.906-2.749M79.163,61.592a48.767,48.767,0,0,0,6.025-.364c7.365-.807,9.7-2.294,11.022-3.878a39.972,39.972,0,0,1-8.129.8c-11.532,0-23.887-4.078-26.85-8.754a5.021,5.021,0,0,0-3,3.372,4.311,4.311,0,0,0,.2,3.338c4.721,3.489,12.257,5.489,20.74,5.489M76.434,73.628c-.1,0-.2-.006-.295-.006A4.945,4.945,0,0,0,72.07,75.7c.014.457.779,9.533,1.589,19.142q.134,1.593.263,3.126c1.03.087,2.069.142,3.121.142.853,0,1.7-.04,2.535-.1.833-11.219,1.592-21.748,1.592-22.342,0-.561-2.29-1.916-4.736-2.044M92.8,28.466l-2.946,13.29a13.88,13.88,0,0,1,3.091,4.773c2,.378,3.713,2.367,4.709,4.24a8.92,8.92,0,0,1,1.107,5.787,43.783,43.783,0,0,1,.031,10.813c-.267,1.663-2.359,12.687-4.781,25.452-.078.41-.157.825-.235,1.238A36.6,36.6,0,0,0,92.8,28.466m4.152,38.513c-4.685,2.817-12.536,4.109-20.116,4.109a60.371,60.371,0,0,1-9.457-.713,24.374,24.374,0,0,1-8.384-2.645c.614,2.858,3.065,15.254,5.437,28.149.071.026.143.049.214.074-1.836-11.44-3.394-21.236-3.394-21.514a2.539,2.539,0,0,1,2.7-2.178,5.4,5.4,0,0,1,3.977,1.216A2.16,2.16,0,0,1,68.588,75c.01.575,1.024,10.784,2.005,20.657.065.646.128,1.282.191,1.914q.785.135,1.581.236c-.08-.955-.16-1.9-.238-2.831-1.017-12.066-1.592-18.911-1.592-19.3,0-1.5,2.822-3.587,5.6-3.587.124,0,.248,0,.374.008,2.53.131,6.2,1.591,6.2,3.579,0,.646-.747,11.054-1.573,22.206q1.394-.156,2.753-.416c.772-10.68,1.533-21.218,1.535-21.791,0-1.041,1.9-3.41,5.022-3.41,1.672,0,4.443,2.079,4.443,4.291,0,.771-1.41,7.886-3.61,18.688.135-.057.265-.122.4-.18.165-.869.329-1.734.491-2.589,2.319-12.22,4.509-23.762,4.772-25.4l.012-.094M88.876,40.931l2.87-12.941c-.336-.147-.673-.289-1.014-.426L88.1,40.421a8.023,8.023,0,0,1,.775.51M56.672,56.81a6.256,6.256,0,0,1-.242-4.584,6.867,6.867,0,0,1,4.089-4.586c.5-4.027,6.187-8.089,10.992-8.745,1.294-2.5,4.179-5.653,7.208-5.66h.24l.21.115a2.709,2.709,0,0,1,1.12,2.086c.326,1.592.732,3.573,5.378,4.136a6.552,6.552,0,0,1,1.38.357l2.616-12.787a36.607,36.607,0,0,0-27.3,67.9c-2.545-13.776-5.111-26.667-5.309-27.375a39.477,39.477,0,0,1-.387-10.856M71.188,40.839c-5.216.923-8.914,5.354-8.826,7.475l0,.061.034-.018c2.748,5.057,21.183,10.611,34.6,7.254a7.608,7.608,0,0,0-1-3.961c-.968-1.822-2.367-3.114-3.491-3.277l0,.05q-.918.048-1.816.048c-10.286,0-18.392-4.628-19.5-7.632m14.234.592c-5.968-.723-6.62-3.907-6.97-5.619-.044-.213-.1-.479-.154-.664-1.972.328-4.316,2.787-5.314,5.007l-.21.467c1.215,2.045,8.2,6.447,18.305,6.308-1.073-2.54-3.026-5.123-5.657-5.5m-17.8,27.426c9.622,1.549,23.642.522,29.517-3.839l.013.017a49.818,49.818,0,0,0-.011-5.945c-1.792,1.815-4.713,3.232-11.733,4a49.966,49.966,0,0,1-6.245.376c-4.968,0-14.005-.689-20.788-5.108a52.366,52.366,0,0,0,.195,7.047c1.244,1.469,4.508,2.719,9.052,3.451" fill="#1a1818"/><path d="M301.528,44.09c.909-1.444,1.745-2.761,2.423-3.825A37.591,37.591,0,0,0,298.1,33.5c-.385,1.388-1.233,4.443-2.208,7.927,1.953.975,3.877,1.892,5.639,2.665m5.667,2.081a37.3,37.3,0,0,0-2.421-4.622c-.575.9-1.243,1.959-1.956,3.092a31,31,0,0,0,4.377,1.53m-12.563-5.379c.848-3.033,1.665-5.972,2.308-8.3-.109-.092-.218-.185-.329-.276a46.67,46.67,0,0,0-5.831-1.835c-.078.8-.395,4-.884,7.93,1.529.822,3.132,1.663,4.736,2.479m6.16,4.47c-1.7-.747-3.5-1.6-5.28-2.49-.8,2.855-1.653,5.88-2.39,8.449,1,.552,2.022,1.084,3.038,1.576,1.42-2.376,3.091-5.077,4.632-7.535M288.4,48.435c1.081.678,2.255,1.389,3.479,2.09.713-2.493,1.546-5.443,2.37-8.384-1.586-.8-3.127-1.611-4.543-2.368-.365,2.818-.808,5.886-1.306,8.662M284.054,29.69c-.05,1.3-.19,3.115-.378,5.168,1.4.8,3.082,1.749,4.91,2.746.513-4.187.826-7.43.834-7.521a16.739,16.739,0,0,0-5.366-.393M295.45,54c-.913-.443-1.825-.915-2.722-1.4-.532,1.843-.974,3.336-1.247,4.193a20.2,20.2,0,0,1,1.973.755c.484-.93,1.179-2.156,2-3.545m6.019,20.636a11.8,11.8,0,0,0-2.908-10.609c-3.511-4-9.468-6.394-14.166-5.7l-.856.128-.033-.072a18.3,18.3,0,0,0-12.189,7.778c-3.3,5.1-2.778,10.963,1.429,16.11,12.518-.562,23.229-3.374,28.723-7.635M286.546,55.9a17.2,17.2,0,0,1,3.608.5c.27-.842.744-2.451,1.335-4.5-1.174-.666-2.308-1.344-3.359-2a34.343,34.343,0,0,1-1.584,6M268.093,84.691c-8.837,0-19.318-1.166-27.161-4.139a37.4,37.4,0,0,0,53.742,11.036A36.547,36.547,0,0,0,300.83,77.88c-7.069,4.3-18.992,6.811-32.737,6.811m14.562-40.1c.394.284,2.11,1.51,4.491,3.046.478-2.762.906-5.8,1.257-8.564-2.2-1.193-3.963-2.184-4.87-2.7-.259,2.664-.577,5.58-.878,8.218m24.163,2.9a34.933,34.933,0,0,1-4.738-1.672c-1.544,2.462-3.229,5.182-4.659,7.571a32.354,32.354,0,0,0,3.607,1.4c1.784-2.242,3.857-4.851,5.79-7.3m-53.672,9.448c2.35-5.456,8.644-9.444,15.7-9.83a17.22,17.22,0,0,1,10.842,2.886c.65-5.4,2.07-17.6,2.07-21.212v-.818l.771-.272c1.625-.574,4.289-.465,7.369.148a37.4,37.4,0,0,0-54.378,33.327c0,1.114.058,2.213.153,3.3.34-.435.7-.865,1.082-1.285,4.474-4.884,10.533-7.176,16.388-6.246m55.233-7.693c-3.684,4.66-7.8,9.817-9.441,11.871A18.327,18.327,0,0,1,300.3,62.5a14.11,14.11,0,0,1,3.218,13.482,40.312,40.312,0,0,1-3.528,10.989,37.37,37.37,0,0,0,8.389-37.726m-11.671,5.344c-.825,1.4-1.527,2.633-2.009,3.558a20.549,20.549,0,0,1,2.446,1.508c.658-.824,1.7-2.134,2.961-3.712a36.076,36.076,0,0,1-3.4-1.354m-27.732-5.172c-6.2.34-11.691,3.762-13.7,8.431,5.465,1.95,10.466,5.96,12.375,12.252a15.343,15.343,0,0,1,2.117-4.944,19.943,19.943,0,0,1,12.885-8.512c-2.73-4.935-7.663-7.552-13.68-7.227m12.833,2.328a16.7,16.7,0,0,1,3.094,4.194c.094-.008.191-.007.286-.013l-.14-.076a28.3,28.3,0,0,0,1.831-6.73c-1.965-1.257-3.537-2.345-4.4-2.96-.276,2.375-.52,4.388-.666,5.585m-11.325,30.6a17.968,17.968,0,0,1-2.156-3.94,29.031,29.031,0,0,1-.723,3.965c.164,0,.324.006.488.006.8,0,1.6-.013,2.391-.031M254.652,59.583l-.008.024-1.016-.225c-5.334-1.185-11.005.821-15.165,5.363a17.831,17.831,0,0,0-2.322,3.167,37.163,37.163,0,0,0,3.014,9.346c6.185,2.966,15.773,4.845,26.551,5.088,4.146-15.524-6.53-21.131-11.054-22.763" fill="#1a1818"/></g></svg>